<svg width="320" height="320" viewBox="0 0 320 320" fill="#E4E4E7" xmlns="http://www.w3.org/2000/svg">
<path d="M218.699 107.731V130.043C218.699 132.095 217.022 133.762 214.98 133.762H174.824V233.48C174.824 235.531 173.136 237.208 171.095 237.208H148.834C146.823 237.208 145.105 235.531 145.105 233.48V133.762H105.03C102.978 133.762 101.301 132.105 101.301 130.043V107.731C101.301 105.599 102.978 103.982 105.03 103.982H214.98C217.022 103.982 218.699 105.609 218.699 107.731ZM320 160.005C320 166.432 319.515 172.727 318.777 178.942C318.777 179.407 318.686 179.831 318.575 180.276C317.241 190.705 314.937 200.82 311.704 210.511C311.593 211.299 311.35 212.047 310.896 212.693C307.399 222.728 302.913 232.277 297.567 241.291C297.315 242.17 296.85 242.938 296.183 243.544C290.049 253.518 282.925 262.805 274.811 271.172C274.619 271.384 274.498 271.586 274.276 271.778C265.292 280.933 255.198 288.947 244.264 295.748C243.921 296.091 243.537 296.243 243.102 296.455C234.927 301.457 226.288 305.752 217.224 309.228C216.971 309.4 216.759 309.622 216.466 309.733C216.072 309.885 215.637 309.844 215.233 309.976C197.984 316.352 179.432 320 160 320C155.392 320 150.855 319.687 146.348 319.303C146.207 319.313 146.055 319.363 145.924 319.363C145.813 319.363 145.732 319.272 145.621 319.262C123.774 317.312 103.17 310.986 84.719 301.103C84.5068 301.012 84.3148 300.911 84.1127 300.81C74.3312 295.505 65.1964 289.179 56.7589 282.035C56.0313 281.641 55.4351 281.095 54.9703 280.408C46.4924 272.991 38.8329 264.705 32.0626 255.671C31.3149 255.145 30.7995 254.377 30.4661 253.528C23.039 243.282 16.7437 232.166 11.8934 220.292C11.6206 219.817 11.4286 219.292 11.3275 218.756C4.09246 200.547 0 180.761 0 160.005C0 146.393 1.89971 133.226 5.11305 120.595C5.10294 119.837 5.31514 119.099 5.67892 118.402C17.0368 76.2939 45.0878 40.9764 82.3847 20.2002C82.6576 19.9981 82.9304 19.8061 83.2234 19.6848C94.4196 13.5409 106.475 8.84201 119.075 5.50731C119.793 5.14352 120.571 4.8909 121.379 4.91111C132.262 2.19282 143.539 0.596204 155.18 0.242524C155.847 0.0808413 156.544 0.0202103 157.241 0.141472C158.161 0.131367 159.06 0 159.99 0C170.368 0 180.482 1.07115 190.315 2.97092C190.537 3.01134 190.779 3.00123 191.012 3.07197C212.222 7.2555 231.936 15.5923 249.256 27.2738C249.509 27.4153 249.721 27.5871 249.953 27.7791C258.391 33.539 266.262 40.0872 273.437 47.3123C273.71 47.5347 273.942 47.8075 274.154 48.0904C283.653 57.7712 291.848 68.6847 298.659 80.5078C298.851 80.8716 299.123 81.1646 299.285 81.5385C305.388 92.3409 310.239 103.932 313.715 116.098C313.967 116.644 314.109 117.179 314.139 117.745C316.746 127.244 318.525 137.056 319.333 147.151C319.444 147.677 319.475 148.182 319.424 148.697C319.677 152.446 319.99 156.175 319.99 159.995L320 160.005ZM306.308 126.011C299.75 129.69 292.303 131.66 284.734 131.66C272.346 131.66 261.17 126.486 253.146 118.23V130.033C253.146 133.722 252.449 137.228 251.469 140.603C268.799 151.446 290.888 153.113 309.562 145.06C308.915 138.562 307.733 132.226 306.298 126.001L306.308 126.011ZM284.734 81.4274C281.369 81.4274 278.641 84.176 278.641 87.541C278.641 90.906 281.369 93.6344 284.734 93.6344C288.099 93.6344 290.827 90.906 290.827 87.541C290.827 86.8437 290.635 86.2071 290.433 85.5806C289.958 84.7621 289.453 83.984 288.968 83.1857C287.857 82.1145 286.371 81.4375 284.724 81.4375L284.734 81.4274ZM269.122 56.9122C257.623 62.7732 250.297 74.4043 250.297 87.541C250.297 106.549 265.747 122 284.744 122C291.535 122 298.133 119.857 303.762 116.118C301.811 109.742 299.356 103.598 296.607 97.6158C293.707 101.031 289.554 103.305 284.744 103.305C276.054 103.305 268.981 96.2314 268.981 87.541C268.981 79.8611 274.609 73.7373 281.885 72.3428C277.964 66.9163 273.71 61.7627 269.122 56.9122ZM224.479 70.8675C230.875 72.5146 236.645 75.728 241.283 80.1642C243.395 67.4721 250.903 56.4474 261.927 49.8285C257.219 45.4732 252.267 41.3907 247.043 37.6619C236.089 45.9886 228.167 57.7105 224.489 70.8675H224.479ZM221.003 22.7366C208.018 35.5196 199.267 51.8395 195.69 69.5235H214.829C218.628 54.9316 227.015 41.8556 238.626 32.1344C232.967 28.6481 227.116 25.4751 220.993 22.7366H221.003ZM166.851 69.5235H185.626C189.051 50.5965 197.893 32.9529 211.08 18.8057C204.734 16.5017 198.247 14.511 191.547 13.066C178.391 29.497 169.984 48.8685 166.851 69.5235ZM138.184 69.5235H157.049C160.02 48.3633 168.215 28.5471 180.917 11.3178C174.066 10.3477 167.114 9.68074 160 9.68074C159.737 9.68074 159.475 9.72116 159.222 9.72116C147.935 27.87 140.801 48.3734 138.194 69.5336L138.184 69.5235ZM109.587 69.5235H128.412C130.817 48.717 137.476 28.5471 147.803 10.2972C139.891 10.9439 132.191 12.2272 124.684 14.0361C116.569 31.6392 111.547 50.2631 109.587 69.5235ZM21.7658 101.021C36.9433 86.2374 53.8083 73.3533 72.0475 62.4196C73.1388 53.0521 75.0284 43.7553 77.3828 34.5495C52.9291 50.7077 33.4167 73.7778 21.7557 101.021H21.7658ZM9.68043 159.944C25.4743 136.591 45.2293 115.724 67.9146 99.1417C71.4412 83.893 84.0925 72.2418 99.8156 70.0489C101.513 51.8597 105.899 34.2363 112.79 17.3809C104.625 20.0992 96.7437 23.4238 89.2661 27.4355C85.4162 39.9962 82.6778 52.8803 81.3035 65.8048C81.2934 65.8856 81.2126 65.9159 81.2025 65.9968C81.0509 67.0174 80.5861 67.9269 79.8383 68.6645C79.7171 68.7959 79.5958 68.8869 79.4644 68.9879C79.2724 69.1395 79.1512 69.3416 78.939 69.4628C54.7177 83.6909 33.1034 101.617 14.5611 122.687C11.4993 134.621 9.70064 147.07 9.69054 159.934L9.68043 159.944ZM16.6427 205.185C28.8089 179.104 46.0376 155.377 67.4599 136.046C67.1466 134.085 66.8536 132.105 66.8536 130.053V112.379C44.5219 130.023 25.1408 151.719 10.5697 176.113C11.6408 186.127 13.6921 195.848 16.6427 205.175V205.185ZM33.1439 240.301C42.4908 209.995 59.376 182.782 82.4959 160.733C77.4738 157.014 73.4116 152.133 70.6833 146.434C49.4228 166.523 32.3759 190.967 21.3212 217.938C24.6053 225.769 28.6371 233.197 33.1439 240.291V240.301ZM110.658 173.586V168.261H105.04C100.22 168.261 95.6322 167.261 91.378 165.613C66.4191 188.633 48.8165 217.857 40.2779 250.517C44.9766 256.711 50.0796 262.582 55.6675 267.969C62.1144 230.933 81.3237 197.768 110.668 173.576L110.658 173.586ZM110.658 213.562V186.47C85.0524 209.995 68.723 241.22 64.1859 275.729C69.7234 280.317 75.6751 284.379 81.829 288.159C83.3043 260.915 93.3485 234.723 110.658 213.552V213.562ZM109.88 295.081C109.88 281.419 112.679 268.231 117.974 255.772C113.417 249.486 110.658 241.816 110.658 233.48V229.993C98.3706 248.85 91.57 270.869 91.2669 293.545C97.4005 296.708 103.777 299.416 110.345 301.73C110.203 299.497 109.88 297.314 109.88 295.081ZM138.244 295.081C138.244 286.774 139.679 278.71 142.397 271.01C136.011 269.919 130.241 267.211 125.361 263.371C121.581 273.486 119.55 284.096 119.55 295.081C119.55 298.355 119.894 301.588 120.248 304.812C126.583 306.56 133.071 307.884 139.72 308.793C138.851 304.286 138.244 299.729 138.244 295.081ZM148.844 261.996H171.105C186.838 261.996 199.631 249.203 199.631 233.48V163.421C199.631 160.753 201.794 158.58 204.471 158.58H215.001C230.714 158.58 243.496 145.767 243.496 130.043V107.731C243.496 91.9973 230.714 79.1941 215.001 79.1941H105.05C89.3369 79.1941 76.534 92.0075 76.534 107.731V130.043C76.534 145.777 89.3268 158.58 105.05 158.58H115.498C118.166 158.58 120.339 160.743 120.339 163.421V233.48C120.339 249.193 133.131 261.996 148.854 261.996H148.844ZM166.588 295.081C166.588 286.633 169.104 278.458 173.601 271.414C172.762 271.465 171.964 271.667 171.105 271.667H152.684C149.663 279.094 147.915 286.916 147.915 295.081C147.915 300.093 148.662 305.004 149.835 309.814C153.22 310.036 156.585 310.329 160.02 310.329C163.223 310.329 166.346 310.057 169.478 309.854C167.781 305.095 166.598 300.174 166.598 295.081H166.588ZM227.702 294.05C222.68 292.666 217.689 291.13 212.788 289.381C212.757 289.371 212.747 289.341 212.727 289.341C209.14 288.047 204.643 290.988 204.633 295.06C204.633 298.9 208.574 301.629 212.101 300.841C217.456 298.85 222.65 296.607 227.702 294.05ZM260.189 271.768C246.79 269.99 233.644 266.817 221.003 262.199C214.819 259.935 208.827 257.257 203.006 254.387C198.823 260.733 192.831 265.786 185.727 268.726C185.747 268.979 185.747 269.222 185.747 269.474C185.737 269.787 185.697 270.091 185.636 270.404C185.565 270.707 185.474 271 185.343 271.273C185.262 271.445 185.262 271.627 185.181 271.778C185.121 271.889 184.979 271.94 184.908 272.051C184.807 272.203 184.757 272.395 184.636 272.546C179.23 278.791 176.259 286.805 176.259 295.071C176.259 299.871 177.522 304.539 179.442 308.925C186.05 308.066 192.497 306.762 198.813 305.054C196.509 302.326 194.963 298.9 194.963 295.04C194.963 286.36 202.026 279.296 210.706 279.296C212.555 279.296 214.374 279.61 216.072 280.226C216.102 280.236 216.112 280.267 216.153 280.277C223.913 283.045 231.906 285.299 239.919 287.098C247.134 282.54 253.894 277.417 260.21 271.748L260.189 271.768ZM283.845 245.06C257.683 244.909 232.118 238.239 209.302 225.729V233.49C209.302 237.754 208.432 241.796 207.139 245.646C212.697 248.405 218.426 250.962 224.327 253.114C238.737 258.389 253.823 261.663 269.193 263.037C274.508 257.409 279.439 251.437 283.835 245.07L283.845 245.06ZM299.487 215.796C294.596 216.362 289.685 216.735 284.754 216.735C257.613 216.735 231.209 208.095 209.312 192.291V214.593C233.644 229.054 261.847 236.067 289.968 235.238C293.586 229.013 296.779 222.546 299.487 215.796ZM308.036 185.359C300.447 187.178 292.687 188.38 284.754 188.38C262.524 188.38 240.829 180.862 223.276 167.311C220.609 167.907 217.85 168.271 215.001 168.271H209.312V180.044C235.443 201.355 270.365 210.622 303.266 205.509C305.348 198.991 306.864 192.23 308.036 185.359ZM310.34 160.025C310.34 158.459 310.148 156.953 310.097 155.407C302.023 158.439 293.535 160.025 284.744 160.025C271.517 160.025 258.866 156.286 247.639 149.536C244.305 155.124 239.616 159.732 233.978 163.006C256.057 177.74 284.431 182.196 309.562 175.132C310.067 170.161 310.33 165.118 310.33 160.015L310.34 160.025Z"/>
</svg>
